<?xml version="1.0" encoding="UTF-8" standalone="no"?>
<svg
   xmlns:dc="http://purl.org/dc/elements/1.1/"
   xmlns:cc="http://creativecommons.org/ns#"
   xmlns:rdf="http://www.w3.org/1999/02/22-rdf-syntax-ns#"
   xmlns:svg="http://www.w3.org/2000/svg"
   xmlns="http://www.w3.org/2000/svg"
   xmlns:sodipodi="http://sodipodi.sourceforge.net/DTD/sodipodi-0.dtd"
   xmlns:inkscape="http://www.inkscape.org/namespaces/inkscape"
   version="1.1"
   id="svg2"
   xml:space="preserve"
   width="1175.28"
   height="1173.1067"
   viewBox="0 0 1175.28 1173.1067"
   sodipodi:docname="lapiz.eps"><metadata
     id="metadata8"><rdf:RDF><cc:Work
         rdf:about=""><dc:format>image/svg+xml</dc:format><dc:type
           rdf:resource="http://purl.org/dc/dcmitype/StillImage" /></cc:Work></rdf:RDF></metadata><defs
     id="defs6" /><sodipodi:namedview
     pagecolor="#ffffff"
     bordercolor="#666666"
     borderopacity="1"
     objecttolerance="10"
     gridtolerance="10"
     guidetolerance="10"
     inkscape:pageopacity="0"
     inkscape:pageshadow="2"
     inkscape:window-width="640"
     inkscape:window-height="480"
     id="namedview4" /><g
     id="g10"
     inkscape:groupmode="layer"
     inkscape:label="ink_ext_XXXXXX"
     transform="matrix(1.3333333,0,0,-1.3333333,0,1173.1067)"><g
       id="g12"
       transform="scale(0.1)"><path
         d="M 7186.66,5399.22 2406.37,619.031 l -86.7,359.188 -86.7,359.111 -359.1,86.7 -359.1,86.69 h -0.1 v 0.1 l -86.7,359.1 -86.7,359.2 -359.204,86.7 -359.097,86.7 4780.201,4780.2 1783.49,-1783.5"
         style="fill:#f3c226;fill-opacity:1;fill-rule:nonzero;stroke:none"
         id="path14" /><path
         d="m 8633.16,6845.67 -864.42,-864.41 -1771.15,1771.15 864.42,864.41 c 240.74,240.74 629.75,242.07 868.86,2.97 l 905.26,-905.26 c 239.1,-239.1 237.77,-628.12 -2.97,-868.86"
         style="fill:#c95e68;fill-opacity:1;fill-rule:nonzero;stroke:none"
         id="path16" /><path
         d="M 1187.14,302.66 807.938,207.313 801.988,205.82 593.445,153.309 9.91016,6.17969 0,3.71094 149.602,597.152 298.953,1190.84 1187.14,302.66"
         style="fill:#1f221f;fill-opacity:1;fill-rule:nonzero;stroke:none"
         id="path18" /><path
         d="M 7186.66,5399.22 2406.37,619.031 l -86.7,359.188 -86.7,359.111 -359.1,86.7 -359.1,86.69 h -0.1 v 0.1 l 4780.2,4780.2 891.79,-891.8"
         style="fill:#d2aa2f;fill-opacity:1;fill-rule:nonzero;stroke:none"
         id="path20" /><path
         d="m 8628.94,6841.46 -860.2,-860.2 -891.88,891.88 1300.33,1300.33 451.64,-451.64 c 243.04,-243.04 243.09,-637.4 0.11,-880.37"
         style="fill:#bf4859;fill-opacity:1;fill-rule:nonzero;stroke:none"
         id="path22" /><path
         d="M 746.762,743.039 1185.15,304.641 807.938,207.313 801.988,205.82 3.71484,-0.0078125 746.762,743.039"
         style="fill:#231f20;fill-opacity:1;fill-rule:nonzero;stroke:none"
         id="path24" /><path
         d="M 7384.84,5597.36 5601.3,7380.89 5818.04,7597.62 7601.58,5814.09 7384.84,5597.36"
         style="fill:#83694e;fill-opacity:1;fill-rule:nonzero;stroke:none"
         id="path26" /><path
         d="m 7384.61,5597.59 -891.57,891.57 216.74,216.73 891.56,-891.57 -216.73,-216.73"
         style="fill:#5c4a3a;fill-opacity:1;fill-rule:nonzero;stroke:none"
         id="path28" /></g></g></svg>
